<svg xmlns="http://www.w3.org/2000/svg" viewBox="0 0 512 512">
  <defs>
    <linearGradient id="bg" x1="0" y1="0" x2="0" y2="1">
      <stop offset="0" stop-color="#3aa0ff"/>
      <stop offset="1" stop-color="#005ed1"/>
    </linearGradient>
  </defs>
  <rect width="512" height="512" rx="112" fill="url(#bg)"/>
  <g fill="#fff">
    <path d="M128 168h256c17.7 0 32 14.3 32 32v144c0 17.7-14.3 32-32 32H128c-17.7 0-32-14.3-32-32V200c0-17.7 14.3-32 32-32zm0 32v32h256v-32H128zm0 80v64h256v-64H332c-13.3 0-24 10.7-24 24s10.7 24 24 24h36v-32h-36c-8.8 0-16-7.2-16-16s7.2-16 16-16h52v32H128z"/>
    <text x="256" y="430" text-anchor="middle" font-family="-apple-system,BlinkMacSystemFont,sans-serif" font-weight="700" font-size="64" fill="#fff" letter-spacing="-2">$</text>
  </g>
</svg>
